<svg width="143" height="42" viewBox="0 0 143 42" fill="none" xmlns="http://www.w3.org/2000/svg">
<g clip-path="url(#clip0_47_16360)">
<path d="M137.333 0H6.08252C3.18302 0 0.83252 2.3505 0.83252 5.25V36.75C0.83252 39.6495 3.18302 42 6.08252 42H137.333C140.232 42 142.583 39.6495 142.583 36.75V5.25C142.583 2.3505 140.232 0 137.333 0Z" fill="white"/>
<path d="M72.3796 22.8375C69.9121 22.8375 67.8961 24.717 67.8961 27.3C67.8961 29.883 69.9121 31.7625 72.3796 31.7625C74.8471 31.7625 76.8631 29.8725 76.8631 27.3C76.8631 24.7275 74.8471 22.8375 72.3796 22.8375ZM72.3796 30.009C71.0251 30.009 69.8596 28.896 69.8596 27.3C69.8596 25.704 71.0251 24.591 72.3796 24.591C73.7341 24.591 74.8996 25.6935 74.8996 27.3C74.8996 28.9065 73.7341 30.009 72.3796 30.009ZM62.5936 22.8375C60.1261 22.8375 58.1101 24.717 58.1101 27.3C58.1101 29.883 60.1261 31.7625 62.5936 31.7625C65.0611 31.7625 67.0771 29.8725 67.0771 27.3C67.0771 24.7275 65.0611 22.8375 62.5936 22.8375ZM62.5936 30.009C61.2391 30.009 60.0736 28.896 60.0736 27.3C60.0736 25.704 61.2391 24.591 62.5936 24.591C63.9481 24.591 65.1136 25.6935 65.1136 27.3C65.1136 28.9065 63.9481 30.009 62.5936 30.009ZM50.9596 24.213V26.103H55.4956C55.3591 27.174 55.0021 27.951 54.4666 28.4865C53.8051 29.148 52.7761 29.8725 50.9701 29.8725C48.1771 29.8725 45.9931 27.6255 45.9931 24.8325C45.9931 22.0395 48.1771 19.7925 50.9701 19.7925C52.4716 19.7925 53.5741 20.3805 54.3826 21.147L55.7161 19.8135C54.5821 18.732 53.0806 17.9025 50.9596 17.9025C47.1376 17.9025 43.9246 21.0105 43.9246 24.843C43.9246 28.6755 47.1376 31.7835 50.9596 31.7835C53.0281 31.7835 54.5821 31.1115 55.8001 29.841C57.0496 28.5915 57.4381 26.8275 57.4381 25.41C57.4381 24.969 57.4066 24.5595 57.3331 24.2235H50.9596V24.213ZM98.5351 25.683C98.1676 24.6855 97.0336 22.8375 94.7131 22.8375C92.3926 22.8375 90.5026 24.6435 90.5026 27.3C90.5026 29.799 92.3926 31.7625 94.9336 31.7625C96.9811 31.7625 98.1676 30.513 98.6506 29.7885L97.1281 28.77C96.6241 29.5155 95.9311 30.009 94.9336 30.009C93.9361 30.009 93.2221 29.547 92.7706 28.6545L98.7451 26.187L98.5456 25.683H98.5351ZM92.4451 27.174C92.3926 25.452 93.7786 24.57 94.7761 24.57C95.5531 24.57 96.2146 24.9585 96.4351 25.515L92.4451 27.174ZM87.5941 31.5H89.5576V18.375H87.5941V31.5ZM84.3811 23.835H84.3181C83.8771 23.31 83.0371 22.8375 81.9661 22.8375C79.7296 22.8375 77.6821 24.801 77.6821 27.321C77.6821 29.841 79.7296 31.773 81.9661 31.773C83.0371 31.773 83.8771 31.3005 84.3181 30.7545H84.3811V31.395C84.3811 33.1065 83.4676 34.02 81.9976 34.02C80.8006 34.02 80.0551 33.159 79.7506 32.4345L78.0391 33.1485C78.5326 34.335 79.8346 35.784 81.9976 35.784C84.2971 35.784 86.2396 34.4295 86.2396 31.1325V23.1105H84.3811V23.835ZM82.1236 30.009C80.7691 30.009 79.6351 28.875 79.6351 27.321C79.6351 25.767 80.7691 24.6015 82.1236 24.6015C83.4781 24.6015 84.5071 25.7565 84.5071 27.321C84.5071 28.8855 83.4571 30.009 82.1236 30.009ZM107.733 18.375H103.04V31.5H105.003V26.523H107.744C109.917 26.523 112.049 24.948 112.049 22.449C112.049 19.95 109.917 18.375 107.744 18.375H107.733ZM107.775 24.696H104.993V20.1915H107.775C109.245 20.1915 110.075 21.4095 110.075 22.4385C110.075 23.4675 109.245 24.6855 107.775 24.6855V24.696ZM119.892 22.8165C118.475 22.8165 117.005 23.4465 116.396 24.822L118.139 25.5465C118.506 24.822 119.199 24.5805 119.924 24.5805C120.932 24.5805 121.971 25.1895 121.982 26.271V26.4075C121.625 26.208 120.869 25.9035 119.934 25.9035C118.055 25.9035 116.154 26.9325 116.154 28.854C116.154 30.6075 117.687 31.7415 119.409 31.7415C120.722 31.7415 121.457 31.1535 121.908 30.4605H121.971V31.479H123.861V26.4495C123.861 24.1185 122.118 22.8165 119.871 22.8165H119.892ZM119.651 30.009C119.01 30.009 118.118 29.6835 118.118 28.896C118.118 27.888 119.231 27.4995 120.197 27.4995C121.058 27.4995 121.467 27.6885 121.982 27.9405C121.835 29.1585 120.785 30.0195 119.651 30.0195V30.009ZM130.76 23.1L128.513 28.791H128.45L126.119 23.1H124.008L127.505 31.059L125.51 35.4795H127.557L132.944 23.1H130.77H130.76ZM113.12 31.5H115.083V18.375H113.12V31.5Z" fill="black"/>
<path d="M22.5885 20.391L11.406 32.256C11.7525 33.5475 12.9285 34.4925 14.325 34.4925C14.8815 34.4925 15.4065 34.3455 15.858 34.0725L15.8895 34.0515L28.4685 26.796L22.578 20.3805L22.5885 20.391Z" fill="#EA4335"/>
<path d="M33.897 18.375H33.8865L28.458 15.2145L22.3365 20.664L28.479 26.8065L33.8865 23.688C34.8315 23.1735 35.472 22.176 35.472 21.0315C35.472 19.887 34.842 18.8895 33.897 18.3855V18.375Z" fill="#FBBC04"/>
<path d="M11.406 9.74402C11.343 9.99602 11.301 10.248 11.301 10.521V31.4895C11.301 31.7625 11.3325 32.0145 11.406 32.2665L22.9665 20.706L11.406 9.74402Z" fill="#4285F4"/>
<path d="M22.6725 21L28.458 15.2145L15.8895 7.92751C15.438 7.65451 14.9025 7.49701 14.325 7.49701C12.9285 7.49701 11.7525 8.45251 11.406 9.73351L22.6725 20.9895V21Z" fill="#34A853"/>
<path d="M44.8325 7.1032H47.0009C47.7016 7.1032 48.314 7.24552 48.8379 7.53017C49.3619 7.81482 49.7627 8.21649 50.0405 8.73518C50.3246 9.24755 50.4666 9.83582 50.4666 10.5C50.4666 11.1642 50.3246 11.7556 50.0405 12.2743C49.7627 12.7867 49.3619 13.1852 48.8379 13.4698C48.314 13.7545 47.7016 13.8968 47.0009 13.8968H44.8325V7.1032ZM46.982 12.8816C47.7395 12.8816 48.3298 12.6728 48.7527 12.2553C49.182 11.8315 49.3966 11.2464 49.3966 10.5C49.3966 9.75991 49.182 9.17797 48.7527 8.75416C48.3298 8.33035 47.7395 8.11844 46.982 8.11844H45.8931V12.8816H46.982Z" fill="black"/>
<path d="M51.6754 7.1032H52.7359V13.8968H51.6754V7.1032Z" fill="black"/>
<path d="M56.2432 14.0486C55.6813 14.0486 55.1763 13.8841 54.7281 13.5552C54.2799 13.2263 53.9706 12.7645 53.8001 12.1699L54.8039 11.7619C54.9049 12.1351 55.0816 12.4419 55.3341 12.6823C55.5929 12.9163 55.9023 13.0334 56.2621 13.0334C56.5967 13.0334 56.8807 12.948 57.1143 12.7772C57.3479 12.6001 57.4647 12.3597 57.4647 12.0561C57.4647 11.7777 57.3605 11.55 57.1522 11.3729C56.9502 11.1895 56.5935 11.006 56.0822 10.8226L55.6561 10.6708C55.2016 10.5126 54.8196 10.2849 54.5103 9.98763C54.201 9.69033 54.0463 9.29815 54.0463 8.81109C54.0463 8.47583 54.1379 8.16588 54.3209 7.88124C54.504 7.59659 54.7565 7.37203 55.0785 7.20757C55.4067 7.03678 55.776 6.95139 56.1863 6.95139C56.7797 6.95139 57.2532 7.09687 57.6067 7.38785C57.9602 7.67249 58.1969 7.99509 58.3169 8.35565L57.3605 8.76364C57.2911 8.54858 57.1585 8.35881 56.9628 8.19435C56.7671 8.02989 56.5146 7.94765 56.2053 7.94765C55.896 7.94765 55.634 8.02672 55.4193 8.18486C55.211 8.343 55.1069 8.54541 55.1069 8.79211C55.1069 9.02615 55.2016 9.21908 55.3909 9.37089C55.5803 9.52271 55.877 9.66819 56.281 9.80735L56.7071 9.94968C57.2879 10.1521 57.7361 10.4178 58.0517 10.7467C58.3737 11.0693 58.5347 11.5026 58.5347 12.0466C58.5347 12.4894 58.421 12.8626 58.1938 13.1662C57.9665 13.4635 57.6761 13.6849 57.3226 13.8304C56.9754 13.9759 56.6156 14.0486 56.2432 14.0486Z" fill="black"/>
<path d="M59.7481 7.1032H62.0964C62.4941 7.1032 62.8603 7.19176 63.1948 7.36887C63.5357 7.54598 63.804 7.79268 63.9997 8.10895C64.2017 8.42523 64.3027 8.78262 64.3027 9.18113C64.3027 9.57964 64.2017 9.93703 63.9997 10.2533C63.804 10.5696 63.5357 10.8163 63.1948 10.9934C62.8603 11.1705 62.4941 11.2591 62.0964 11.2591H60.8086V13.8968H59.7481V7.1032ZM62.1154 10.2533C62.3489 10.2533 62.5509 10.2027 62.7214 10.1015C62.8918 9.99396 63.0212 9.85796 63.1096 9.69349C63.198 9.52903 63.2422 9.35824 63.2422 9.18113C63.2422 9.00401 63.198 8.83322 63.1096 8.66876C63.0212 8.5043 62.8918 8.37146 62.7214 8.27025C62.5509 8.16905 62.3489 8.11844 62.1154 8.11844H60.8086V10.2533H62.1154Z" fill="black"/>
<path d="M68.4777 14.0486C67.8212 14.0486 67.2247 13.8936 66.6881 13.5837C66.1515 13.2674 65.7286 12.8373 65.4192 12.2933C65.1162 11.7493 64.9647 11.1515 64.9647 10.5C64.9647 9.84847 65.1162 9.25387 65.4192 8.7162C65.7286 8.17221 66.1515 7.74207 66.6881 7.4258C67.2247 7.10952 67.8212 6.95139 68.4777 6.95139C69.1343 6.95139 69.7277 7.10952 70.2579 7.4258C70.7945 7.74207 71.2175 8.17221 71.5268 8.7162C71.8361 9.25387 71.9908 9.84847 71.9908 10.5C71.9908 11.1515 71.8361 11.7493 71.5268 12.2933C71.2238 12.8373 70.804 13.2674 70.2674 13.5837C69.7308 13.8936 69.1343 14.0486 68.4777 14.0486ZM68.4777 13.0334C68.9259 13.0334 69.3363 12.9258 69.7087 12.7108C70.0812 12.4957 70.3747 12.1984 70.5893 11.8189C70.804 11.433 70.9113 10.9934 70.9113 10.5C70.9113 10.0066 70.804 9.57015 70.5893 9.19062C70.3747 8.80476 70.0812 8.5043 69.7087 8.28923C69.3363 8.07416 68.9259 7.96663 68.4777 7.96663C68.0295 7.96663 67.6192 8.07416 67.2468 8.28923C66.8743 8.5043 66.5776 8.80476 66.3567 9.19062C66.142 9.57015 66.0347 10.0066 66.0347 10.5C66.0347 10.9934 66.142 11.433 66.3567 11.8189C66.5776 12.1984 66.8743 12.4957 67.2468 12.7108C67.6192 12.9258 68.0295 13.0334 68.4777 13.0334Z" fill="black"/>
<path d="M73.2026 7.1032H74.462L77.4921 12.0466H77.5489L77.4921 10.7372V7.1032H78.5432V13.8968H77.4353L74.2537 8.69723H74.1969L74.2537 10.0066V13.8968H73.2026V7.1032Z" fill="black"/>
<path d="M80.0917 7.1032H81.1523V13.8968H80.0917V7.1032Z" fill="black"/>
<path d="M82.6994 7.1032H85.2466C85.6064 7.1032 85.9378 7.18227 86.2408 7.3404C86.5502 7.49854 86.7964 7.71677 86.9794 7.99509C87.1625 8.27342 87.254 8.5802 87.254 8.91546C87.254 9.25071 87.1688 9.54168 86.9984 9.78838C86.8342 10.0351 86.6165 10.2217 86.345 10.3482V10.4051C86.6859 10.5253 86.9605 10.7246 87.1688 11.0029C87.3834 11.2812 87.4908 11.607 87.4908 11.9802C87.4908 12.3534 87.3929 12.6855 87.1972 12.9764C87.0078 13.2674 86.749 13.4951 86.4208 13.6596C86.0988 13.8177 85.7453 13.8968 85.3602 13.8968H82.6994V7.1032ZM85.1993 9.94968C85.5023 9.94968 85.7453 9.85479 85.9284 9.66503C86.1177 9.47526 86.2124 9.25703 86.2124 9.01034C86.2124 8.76364 86.1209 8.54858 85.9378 8.36514C85.7611 8.17537 85.5275 8.08049 85.2371 8.08049H83.76V9.94968H85.1993ZM85.3602 12.91C85.6822 12.91 85.9378 12.8088 86.1272 12.6064C86.3229 12.404 86.4208 12.1699 86.4208 11.9043C86.4208 11.6323 86.3198 11.3982 86.1178 11.2021C85.9221 10.9997 85.6569 10.8985 85.3224 10.8985H83.76V12.91H85.3602Z" fill="black"/>
<path d="M88.6453 7.1032H89.7059V12.8816H92.6128V13.8968H88.6453V7.1032Z" fill="black"/>
<path d="M93.685 7.1032H97.804V8.11844H94.7455V9.99712H97.501V11.0029H94.7455V12.8816H97.804V13.8968H93.685V7.1032Z" fill="black"/>
<path d="M103.015 14.0486C102.453 14.0486 101.948 13.8841 101.5 13.5552C101.052 13.2263 100.742 12.7645 100.572 12.1699L101.576 11.7619C101.677 12.1351 101.853 12.4419 102.106 12.6823C102.365 12.9163 102.674 13.0334 103.034 13.0334C103.369 13.0334 103.653 12.948 103.886 12.7772C104.12 12.6001 104.237 12.3597 104.237 12.0561C104.237 11.7777 104.132 11.55 103.924 11.3729C103.722 11.1895 103.365 11.006 102.854 10.8226L102.428 10.6708C101.973 10.5126 101.592 10.2849 101.282 9.98763C100.973 9.69033 100.818 9.29815 100.818 8.81109C100.818 8.47583 100.91 8.16588 101.093 7.88124C101.276 7.59659 101.528 7.37203 101.85 7.20757C102.179 7.03678 102.548 6.95139 102.958 6.95139C103.552 6.95139 104.025 7.09687 104.379 7.38785C104.732 7.67249 104.969 7.99509 105.089 8.35565L104.132 8.76364C104.063 8.54858 103.93 8.35881 103.735 8.19435C103.539 8.02989 103.286 7.94765 102.977 7.94765C102.668 7.94765 102.406 8.02672 102.191 8.18486C101.983 8.343 101.879 8.54541 101.879 8.79211C101.879 9.02615 101.973 9.21908 102.163 9.37089C102.352 9.52271 102.649 9.66819 103.053 9.80735L103.479 9.94968C104.06 10.1521 104.508 10.4178 104.824 10.7467C105.146 11.0693 105.307 11.5026 105.307 12.0466C105.307 12.4894 105.193 12.8626 104.966 13.1662C104.738 13.4635 104.448 13.6849 104.094 13.8304C103.747 13.9759 103.387 14.0486 103.015 14.0486Z" fill="black"/>
<path d="M108.963 14.0486C108.458 14.0486 108.01 13.9347 107.618 13.707C107.233 13.4793 106.933 13.1567 106.719 12.7392C106.504 12.3217 106.397 11.8378 106.397 11.2875V7.1032H107.448V11.3445C107.448 11.8442 107.577 12.2522 107.836 12.5684C108.101 12.8784 108.477 13.0334 108.963 13.0334C109.449 13.0334 109.822 12.8784 110.08 12.5684C110.339 12.2585 110.469 11.8505 110.469 11.3445V7.1032H111.529V11.2875C111.529 11.8315 111.425 12.3123 111.217 12.7297C111.008 13.1472 110.712 13.473 110.327 13.707C109.941 13.9347 109.487 14.0486 108.963 14.0486Z" fill="black"/>
<path d="M112.956 7.1032H115.342C115.746 7.1032 116.115 7.19176 116.45 7.36887C116.785 7.54598 117.047 7.79268 117.236 8.10895C117.432 8.42523 117.53 8.78262 117.53 9.18113C117.53 9.63656 117.381 10.0414 117.084 10.3956C116.794 10.7499 116.428 10.9871 115.986 11.1072L115.977 11.1547L117.833 13.8399V13.8968H116.602L114.812 11.2401H114.016V13.8968H112.956V7.1032ZM115.314 10.2533C115.629 10.2533 115.898 10.1521 116.119 9.94968C116.34 9.74726 116.45 9.48792 116.45 9.17164C116.45 8.99453 116.406 8.82374 116.317 8.65927C116.229 8.49481 116.103 8.36197 115.939 8.26077C115.775 8.15323 115.579 8.09947 115.352 8.09947H114.016V10.2533H115.314Z" fill="black"/>
</g>
<defs>
<clipPath id="clip0_47_16360">
<rect width="141.75" height="42" fill="white" transform="translate(0.83252)"/>
</clipPath>
</defs>
</svg>
