<svg width="133" height="42" viewBox="0 0 133 42" fill="none" xmlns="http://www.w3.org/2000/svg">
<path d="M8.86761 41.0807C8.54771 41.0807 8.23551 41.0766 7.91812 41.0694C7.26059 41.0608 6.6046 41.0036 5.95553 40.8982C5.3503 40.7939 4.764 40.6 4.21596 40.3229C3.67294 40.048 3.17767 39.6876 2.74911 39.2554C2.31435 38.8284 1.95239 38.3331 1.67758 37.7891C1.39974 37.2416 1.20746 36.6548 1.10743 36.0491C0.999414 35.3982 0.940971 34.74 0.932608 34.0803C0.925951 33.8589 0.917236 33.1216 0.917236 33.1216V8.86606C0.917236 8.86606 0.926518 8.14008 0.932661 7.92679C0.940668 7.26811 0.998768 6.61099 1.10646 5.96112C1.20667 5.35372 1.39911 4.7652 1.6771 4.21592C1.9509 3.67236 2.31084 3.17667 2.74298 2.74808C3.17464 2.31542 3.6715 1.95316 4.21544 1.67449C4.76222 1.39822 5.34742 1.20569 5.95142 1.10336C6.60263 0.996851 7.2609 0.939269 7.9207 0.931094L8.86814 0.918274H123.96L124.919 0.931609C125.573 0.939378 126.225 0.996446 126.87 1.10233C127.481 1.20595 128.072 1.39982 128.625 1.67757C129.715 2.23916 130.601 3.12764 131.161 4.21849C131.434 4.76397 131.624 5.34769 131.723 5.94985C131.832 6.60505 131.893 7.26733 131.905 7.93141C131.908 8.22877 131.908 8.54818 131.908 8.86606C131.916 9.2598 131.916 9.63458 131.916 10.0124V31.9875C131.916 32.3689 131.916 32.7412 131.908 33.1164C131.908 33.4579 131.908 33.7707 131.904 34.0926C131.892 34.7448 131.832 35.3953 131.725 36.0388C131.627 36.6489 131.435 37.2403 131.158 37.7923C130.881 38.3303 130.521 38.8213 130.091 39.2472C129.662 39.6817 129.166 40.0442 128.622 40.3209C128.07 40.6002 127.48 40.7948 126.87 40.8982C126.221 41.0042 125.565 41.0614 124.908 41.0694C124.6 41.0766 124.278 41.0807 123.966 41.0807L122.827 41.0827L8.86761 41.0807Z" fill="white"/>
<path d="M26.0105 21.317C26.0218 20.4406 26.2546 19.5814 26.6872 18.8191C27.1199 18.0569 27.7383 17.4164 28.4849 16.9574C28.0106 16.28 27.3848 15.7225 26.6574 15.3292C25.9299 14.9359 25.1208 14.7177 24.2942 14.6918C22.531 14.5068 20.8217 15.7469 19.9232 15.7469C19.0073 15.7469 17.6239 14.7102 16.1342 14.7409C15.1707 14.772 14.2316 15.0522 13.4086 15.5541C12.5855 16.0561 11.9065 16.7627 11.4377 17.6051C9.407 21.1209 10.9217 26.288 12.867 29.13C13.8402 30.5216 14.9776 32.076 16.466 32.0209C17.9224 31.9605 18.4663 31.0922 20.2243 31.0922C21.966 31.0922 22.4763 32.0209 23.9949 31.9859C25.5576 31.9605 26.5423 30.5881 27.4814 29.1833C28.1806 28.1917 28.7187 27.0958 29.0757 25.9362C28.1677 25.5521 27.3929 24.9093 26.8479 24.0879C26.3028 23.2665 26.0116 22.3028 26.0105 21.317Z" fill="black"/>
<path d="M23.1429 12.8223C23.995 11.7994 24.4148 10.4846 24.3131 9.1572C23.0113 9.29393 21.8088 9.91611 20.9452 10.8998C20.5229 11.3803 20.1995 11.9394 19.9935 12.545C19.7874 13.1506 19.7027 13.7909 19.7443 14.4292C20.3954 14.4359 21.0396 14.2948 21.6283 14.0165C22.217 13.7381 22.7349 13.3298 23.1429 12.8223Z" fill="black"/>
<path d="M37.4381 15.4371V10.0574H35.4673V9.17194H40.3779V10.0574H38.4112V15.4371H37.4381Z" fill="black"/>
<path d="M44.903 14.1607C44.7762 14.5928 44.5015 14.9666 44.127 15.2167C43.7525 15.4667 43.302 15.5771 42.8543 15.5286C42.5428 15.5368 42.2332 15.4771 41.9471 15.3537C41.661 15.2303 41.4051 15.0461 41.1973 14.8139C40.9895 14.5817 40.8347 14.3071 40.7437 14.0091C40.6527 13.7111 40.6276 13.3968 40.6702 13.0881C40.6287 12.7785 40.6542 12.4636 40.7451 12.1647C40.8359 11.8658 40.9898 11.5899 41.1965 11.3556C41.4033 11.1214 41.6579 10.9343 41.9432 10.8071C42.2285 10.6798 42.5378 10.6153 42.8502 10.618C44.1657 10.618 44.9594 11.5168 44.9594 13.0015V13.327H41.6207V13.3793C41.6061 13.5528 41.6279 13.7275 41.6847 13.8921C41.7416 14.0567 41.8322 14.2075 41.9507 14.3351C42.0693 14.4626 42.2132 14.564 42.3732 14.6326C42.5332 14.7013 42.7058 14.7358 42.8799 14.7338C43.1031 14.7606 43.3292 14.7204 43.5295 14.6184C43.7298 14.5163 43.8952 14.357 44.0047 14.1606L44.903 14.1607ZM41.6207 12.637H44.0089C44.0206 12.4783 43.9991 12.3189 43.9455 12.1691C43.892 12.0192 43.8078 11.8822 43.6982 11.7668C43.5886 11.6515 43.4561 11.5604 43.3091 11.4993C43.1622 11.4382 43.0041 11.4085 42.845 11.4122C42.6837 11.4101 42.5235 11.4404 42.374 11.5013C42.2245 11.5621 42.0887 11.6523 41.9746 11.7664C41.8605 11.8806 41.7704 12.0164 41.7096 12.1659C41.6489 12.3154 41.6186 12.4756 41.6207 12.637ZM42.2893 9.91867L43.3793 8.4252H44.4734L43.2531 9.91867H42.2893Z" fill="black"/>
<path d="M46.2557 8.86224H47.1888V15.436H46.2557V8.86224Z" fill="black"/>
<path d="M52.7184 14.1607C52.5916 14.5928 52.317 14.9666 51.9424 15.2167C51.5679 15.4667 51.1174 15.5771 50.6697 15.5286C50.3582 15.5368 50.0486 15.4771 49.7625 15.3537C49.4764 15.2303 49.2205 15.0461 49.0127 14.8139C48.8049 14.5817 48.6502 14.3071 48.5591 14.0091C48.4681 13.7111 48.443 13.3968 48.4856 13.0881C48.4441 12.7785 48.4697 12.4636 48.5605 12.1647C48.6513 11.8658 48.8053 11.5899 49.012 11.3556C49.2187 11.1214 49.4733 10.9343 49.7586 10.8071C50.0439 10.6798 50.3532 10.6153 50.6656 10.618C51.9812 10.618 52.7748 11.5168 52.7748 13.0015V13.327H49.4361V13.3793C49.4215 13.5528 49.4433 13.7275 49.5002 13.8921C49.557 14.0567 49.6476 14.2075 49.7661 14.3351C49.8847 14.4626 50.0286 14.564 50.1886 14.6326C50.3486 14.7013 50.5212 14.7358 50.6953 14.7338C50.9185 14.7606 51.1446 14.7204 51.3449 14.6184C51.5452 14.5163 51.7107 14.357 51.8202 14.1606L52.7184 14.1607ZM49.4361 12.637H51.8243C51.836 12.4783 51.8145 12.3189 51.7609 12.1691C51.7074 12.0192 51.6232 11.8822 51.5136 11.7668C51.404 11.6515 51.2714 11.5604 51.1245 11.4993C50.9776 11.4382 50.8195 11.4085 50.6604 11.4122C50.499 11.4101 50.3389 11.4404 50.1894 11.5013C50.0399 11.5621 49.9041 11.6523 49.79 11.7664C49.6759 11.8806 49.5858 12.0164 49.525 12.1659C49.4643 12.3154 49.434 12.4756 49.4361 12.637ZM50.1047 9.91867L51.1947 8.4252H52.2888L51.0686 9.91867H50.1047Z" fill="black"/>
<path d="M57.1244 12.2542C57.0649 12.009 56.9196 11.7933 56.7148 11.646C56.5099 11.4987 56.2591 11.4297 56.0078 11.4513C55.2264 11.4513 54.7486 12.0502 54.7486 13.0576C54.7486 14.0825 55.2305 14.6946 56.0078 14.6946C56.2566 14.7235 56.5075 14.6604 56.7131 14.5173C56.9188 14.3741 57.065 14.1608 57.1244 13.9174H58.0319C57.9719 14.3962 57.7272 14.8325 57.35 15.1335C56.9728 15.4344 56.493 15.5761 56.0129 15.5283C55.6968 15.5383 55.3822 15.4791 55.0914 15.3548C54.8005 15.2305 54.5403 15.0442 54.3289 14.8089C54.1176 14.5736 53.9602 14.2949 53.8678 13.9924C53.7754 13.6899 53.7502 13.3709 53.794 13.0576C53.7524 12.7467 53.7792 12.4304 53.8725 12.1309C53.9658 11.8314 54.1234 11.5558 54.3342 11.3235C54.545 11.0912 54.8039 10.9077 55.093 10.7858C55.3821 10.6639 55.6943 10.6065 56.0078 10.6177C56.4918 10.5731 56.9742 10.7192 57.3522 11.0248C57.7303 11.3305 57.9741 11.7716 58.0319 12.2542L57.1244 12.2542Z" fill="black"/>
<path d="M59.2706 8.86224H60.1955V11.4678H60.2693C60.3933 11.1955 60.5983 10.9681 60.8563 10.8165C61.1143 10.6649 61.4127 10.5966 61.7109 10.6208C61.9398 10.6083 62.1686 10.6465 62.381 10.7327C62.5934 10.8188 62.7841 10.9508 62.9396 11.1191C63.0952 11.2875 63.2116 11.4881 63.2807 11.7066C63.3498 11.9252 63.3698 12.1563 63.3392 12.3834V15.436H62.4051V12.6136C62.4051 11.8584 62.0534 11.4759 61.3941 11.4759C61.2337 11.4628 61.0724 11.4848 60.9214 11.5405C60.7705 11.5963 60.6335 11.6843 60.5201 11.7984C60.4067 11.9126 60.3196 12.0502 60.265 12.2015C60.2103 12.3529 60.1894 12.5143 60.2036 12.6746V15.436H59.2705L59.2706 8.86224Z" fill="black"/>
<path d="M64.5121 14.1009C64.5121 13.2498 65.1458 12.7592 66.2706 12.6894L67.5513 12.6156V12.2075C67.5513 11.7081 67.2212 11.4262 66.5834 11.4262C66.0625 11.4262 65.7015 11.6174 65.598 11.9517H64.6946C64.79 11.1396 65.5539 10.6187 66.6264 10.6187C67.8118 10.6187 68.4798 11.2088 68.4798 12.2075V15.438H67.5821V14.7736H67.5083C67.3584 15.0119 67.148 15.2062 66.8985 15.3366C66.649 15.467 66.3694 15.5289 66.0881 15.5159C65.8896 15.5365 65.689 15.5154 65.4992 15.4537C65.3094 15.3921 65.1346 15.2914 64.9862 15.1581C64.8377 15.0248 64.7188 14.8618 64.6371 14.6797C64.5555 14.4976 64.5129 14.3004 64.5121 14.1009ZM67.5513 13.6969V13.3016L66.3967 13.3754C65.7456 13.419 65.4503 13.6405 65.4503 14.0573C65.4503 14.4828 65.8194 14.7305 66.3271 14.7305C66.4758 14.7455 66.626 14.7305 66.7688 14.6863C66.9116 14.6421 67.0441 14.5697 67.1583 14.4732C67.2725 14.3768 67.3662 14.2584 67.4337 14.125C67.5012 13.9916 67.5412 13.846 67.5513 13.6969Z" fill="black"/>
<path d="M69.9409 10.7088H70.8392V11.4338H70.9089C71.0094 11.1821 71.1872 10.9688 71.4165 10.8245C71.6459 10.6801 71.9151 10.6122 72.1855 10.6304C72.3253 10.6285 72.4648 10.6416 72.6018 10.6694V11.5902C72.4306 11.5536 72.256 11.5347 72.0809 11.5338C71.927 11.52 71.7719 11.5385 71.6256 11.5882C71.4793 11.6379 71.345 11.7176 71.2313 11.8223C71.1177 11.927 71.0272 12.0543 70.9656 12.196C70.9041 12.3378 70.8729 12.4908 70.874 12.6453V15.4369H69.9409L69.9409 10.7088Z" fill="black"/>
<path d="M73.4601 15.9101H74.4147C74.4937 16.2531 74.8884 16.4746 75.518 16.4746C76.2953 16.4746 76.7557 16.1054 76.7557 15.4804V14.573H76.6859C76.5396 14.827 76.3258 15.0356 76.0683 15.1758C75.8108 15.3159 75.5196 15.3821 75.2268 15.3671C74.0199 15.3671 73.2734 14.434 73.2734 13.0185C73.2734 11.5768 74.0281 10.6304 75.236 10.6304C75.5361 10.6199 75.8334 10.6921 76.0952 10.8392C76.3571 10.9862 76.5735 11.2023 76.7208 11.464H76.7946V10.7088H77.6887V15.4758C77.6887 16.5571 76.8418 17.243 75.5047 17.243C74.3234 17.2431 73.5595 16.7135 73.4601 15.9101ZM76.7731 13.0139C76.7731 12.072 76.286 11.4686 75.4914 11.4686C74.6885 11.4686 74.2373 12.0721 74.2373 13.0139C74.2373 13.9562 74.6885 14.5596 75.4914 14.5596C76.2912 14.5596 76.7731 13.9609 76.7731 13.0139Z" fill="black"/>
<path d="M83.1737 14.1596C83.047 14.5917 82.7723 14.9655 82.3978 15.2155C82.0232 15.4656 81.5727 15.576 81.125 15.5275C80.8135 15.5357 80.504 15.476 80.2178 15.3526C79.9317 15.2292 79.6759 15.045 79.4681 14.8128C79.2603 14.5806 79.1055 14.306 79.0144 14.008C78.9234 13.71 78.8983 13.3957 78.9409 13.087C78.8995 12.7774 78.925 12.4625 79.0158 12.1636C79.1066 11.8647 79.2606 11.5888 79.4673 11.3545C79.674 11.1203 79.9286 10.9332 80.2139 10.806C80.4992 10.6787 80.8085 10.6142 81.1209 10.6169C82.4365 10.6169 83.2301 11.5157 83.2301 13.0004V13.3259H79.8915V13.3782C79.8769 13.5517 79.8987 13.7264 79.9555 13.891C80.0123 14.0555 80.1029 14.2064 80.2215 14.334C80.34 14.4615 80.4839 14.5628 80.6439 14.6315C80.804 14.7002 80.9765 14.7346 81.1507 14.7327C81.3739 14.7595 81.6 14.7193 81.8003 14.6172C82.0006 14.5152 82.166 14.3559 82.2755 14.1595L83.1737 14.1596ZM79.8915 12.6359H82.2796C82.2913 12.4772 82.2698 12.3178 82.2163 12.1679C82.1628 12.0181 82.0785 11.8811 81.9689 11.7657C81.8593 11.6504 81.7268 11.5592 81.5798 11.4982C81.4329 11.4371 81.2748 11.4074 81.1158 11.411C80.9544 11.409 80.7942 11.4393 80.6447 11.5002C80.4952 11.561 80.3595 11.6512 80.2454 11.7653C80.1313 11.8795 80.0412 12.0153 79.9804 12.1648C79.9196 12.3143 79.8894 12.4745 79.8915 12.6359Z" fill="black"/>
<path d="M84.4835 10.7088H85.3818V11.4338H85.4515C85.5521 11.1821 85.7298 10.9688 85.9592 10.8245C86.1886 10.6801 86.4578 10.6122 86.7281 10.6304C86.8679 10.6285 87.0075 10.6416 87.1445 10.6694V11.5902C86.9732 11.5536 86.7987 11.5347 86.6236 11.5338C86.4697 11.52 86.3146 11.5385 86.1682 11.5882C86.0219 11.6379 85.8876 11.7176 85.7739 11.8223C85.6603 11.927 85.5698 12.0543 85.5082 12.196C85.4467 12.3378 85.4155 12.4908 85.4166 12.6453V15.4369H84.4835V10.7088Z" fill="black"/>
<path d="M90.5071 13.0699C90.5071 11.5759 91.2751 10.6295 92.4697 10.6295C92.7652 10.6159 93.0584 10.6867 93.3152 10.8335C93.5719 10.9804 93.7816 11.1974 93.9196 11.459H93.9893V8.86224H94.9224V15.436H94.0283V14.689H93.9544C93.8057 14.9489 93.5888 15.1631 93.3271 15.3085C93.0654 15.4539 92.7689 15.5249 92.4697 15.5139C91.2669 15.5139 90.5071 14.5675 90.5071 13.0699ZM91.471 13.0699C91.471 14.0727 91.9437 14.6762 92.7343 14.6762C93.5207 14.6762 94.0068 14.064 94.0068 13.074C94.0068 12.0886 93.5156 11.4677 92.7343 11.4677C91.9488 11.4677 91.471 12.0753 91.471 13.0699Z" fill="black"/>
<path d="M96.1798 14.0988C96.1798 13.2477 96.8135 12.7571 97.9383 12.6874L99.2191 12.6135V12.2054C99.2191 11.7061 98.8889 11.4241 98.2511 11.4241C97.7302 11.4241 97.3693 11.6153 97.2657 11.9496H96.3623C96.4577 11.1375 97.2216 10.6166 98.2942 10.6166C99.4795 10.6166 100.148 11.2067 100.148 12.2054V15.4359H99.2498V14.7715H99.176C99.0261 15.0098 98.8157 15.2041 98.5662 15.3345C98.3167 15.465 98.0371 15.5268 97.7558 15.5138C97.5574 15.5345 97.3567 15.5133 97.1669 15.4517C96.9771 15.39 96.8024 15.2893 96.6539 15.156C96.5054 15.0227 96.3865 14.8597 96.3048 14.6776C96.2232 14.4955 96.1806 14.2984 96.1798 14.0988ZM99.2191 13.6948V13.2995L98.0645 13.3734C97.4134 13.4169 97.1181 13.6384 97.1181 14.0552C97.1181 14.4808 97.4872 14.7284 97.9948 14.7284C98.1435 14.7434 98.2938 14.7284 98.4366 14.6842C98.5794 14.64 98.7118 14.5676 98.826 14.4711C98.9403 14.3747 99.0339 14.2563 99.1014 14.1229C99.169 13.9895 99.209 13.844 99.2191 13.6948Z" fill="black"/>
<path d="M101.61 10.7069H102.508V11.4579H102.578C102.696 11.1882 102.896 10.962 103.149 10.811C103.401 10.66 103.695 10.5917 103.989 10.6156C104.219 10.5983 104.45 10.633 104.665 10.7171C104.879 10.8012 105.073 10.9325 105.23 11.1014C105.387 11.2703 105.504 11.4724 105.573 11.6927C105.641 11.913 105.659 12.1459 105.625 12.3741V15.4349H104.692V12.6084C104.692 11.8486 104.362 11.4708 103.672 11.4708C103.516 11.4635 103.36 11.4901 103.215 11.5487C103.07 11.6073 102.939 11.6966 102.832 11.8104C102.725 11.9242 102.643 12.0598 102.594 12.208C102.544 12.3562 102.526 12.5134 102.543 12.6689V15.4349H101.61V10.7069Z" fill="black"/>
<path d="M108.797 10.6166C109.86 10.6166 110.555 11.1114 110.646 11.945H109.751C109.665 11.5979 109.326 11.3764 108.797 11.3764C108.276 11.3764 107.88 11.6235 107.88 11.9927C107.88 12.2751 108.119 12.4531 108.632 12.5705L109.417 12.7525C110.316 12.9612 110.738 13.3477 110.738 14.0424C110.738 14.9325 109.908 15.5272 108.779 15.5272C107.654 15.5272 106.921 15.0191 106.838 14.1814H107.772C107.853 14.3808 107.998 14.5473 108.184 14.6543C108.371 14.7613 108.588 14.8026 108.801 14.7715C109.382 14.7715 109.795 14.5111 109.795 14.1332C109.795 13.8512 109.574 13.6687 109.1 13.5559L108.276 13.3646C107.376 13.1519 106.96 12.7484 106.96 12.045C106.96 11.2067 107.728 10.6166 108.797 10.6166Z" fill="black"/>
<path d="M36.9579 18.9707H38.9102V32.01H36.9579V18.9707Z" fill="black"/>
<path d="M41.2626 23.7418L42.329 18.9707H44.2259L42.934 23.7418H41.2626Z" fill="black"/>
<path d="M51.6033 28.4858H46.6333L45.4397 32.01H43.3346L48.0422 18.9707H50.2293L54.9368 32.01H52.7959L51.6033 28.4858ZM47.148 26.8595H51.0876L49.1455 21.1394H49.0912L47.148 26.8595Z" fill="black"/>
<path d="M65.1022 27.257C65.1022 30.2111 63.5211 32.1091 61.135 32.1091C60.5305 32.1407 59.9294 32.0015 59.4004 31.7073C58.8715 31.4132 58.436 30.976 58.1439 30.4459H58.0988V35.1545H56.1475V22.5027H58.0362V24.0839H58.0721C58.3776 23.5563 58.8204 23.1214 59.3534 22.8255C59.8864 22.5295 60.4897 22.3836 61.0991 22.4033C63.5118 22.4033 65.1022 24.3105 65.1022 27.257ZM63.0965 27.257C63.0965 25.3318 62.1019 24.0665 60.5843 24.0665C59.0934 24.0665 58.0906 25.3585 58.0906 27.257C58.0906 29.1724 59.0934 30.4552 60.5843 30.4552C62.1019 30.4551 63.0965 29.199 63.0965 27.257Z" fill="black"/>
<path d="M75.5658 27.257C75.5658 30.2111 73.9846 32.1091 71.5986 32.1091C70.9941 32.1407 70.393 32.0015 69.864 31.7073C69.335 31.4132 68.8996 30.976 68.6075 30.4459H68.5623V35.1545H66.6116V22.5027H68.4998V24.0839H68.5357C68.8412 23.5563 69.2841 23.1214 69.8171 22.8255C70.3501 22.5295 70.9533 22.3836 71.5627 22.4033C73.9754 22.4033 75.5658 24.3105 75.5658 27.257ZM73.5601 27.257C73.5601 25.3318 72.5655 24.0665 71.0479 24.0665C69.557 24.0665 68.5542 25.3585 68.5542 27.257C68.5542 29.1724 69.557 30.4552 71.0479 30.4552C72.5655 30.4551 73.5601 29.199 73.5601 27.257Z" fill="black"/>
<path d="M82.48 28.3776C82.6246 29.6706 83.8807 30.5196 85.5972 30.5196C87.2419 30.5196 88.4252 29.6705 88.4252 28.5047C88.4252 27.4926 87.7115 26.8866 86.0217 26.4713L84.3319 26.0637C81.9376 25.4855 80.826 24.3657 80.826 22.5487C80.826 20.299 82.7866 18.7538 85.5705 18.7538C88.3257 18.7538 90.2145 20.299 90.278 22.5487H88.3083C88.1904 21.2475 87.1147 20.4621 85.5428 20.4621C83.9709 20.4621 82.8953 21.2568 82.8953 22.4134C82.8953 23.3352 83.5823 23.8777 85.2629 24.2929L86.6995 24.6456C89.3747 25.2783 90.4862 26.3534 90.4862 28.2606C90.4862 30.7 88.5431 32.2279 85.4526 32.2279C82.561 32.2279 80.6087 30.7359 80.4825 28.3775L82.48 28.3776Z" fill="black"/>
<path d="M94.6996 20.2528V22.5025H96.5074V24.0478H94.6996V29.2891C94.6996 30.1032 95.0616 30.4826 95.8563 30.4826C96.0709 30.4789 96.2851 30.4638 96.4982 30.4375V31.9735C96.1409 32.0403 95.7777 32.0705 95.4143 32.0637C93.4897 32.0637 92.7391 31.3408 92.7391 29.4972V24.0478H91.3568V22.5025H92.739V20.2528H94.6996Z" fill="black"/>
<path d="M97.5533 27.2575C97.5533 24.2659 99.315 22.3864 102.062 22.3864C104.818 22.3864 106.572 24.2658 106.572 27.2575C106.572 30.2567 104.827 32.128 102.062 32.128C99.2975 32.128 97.5533 30.2567 97.5533 27.2575ZM104.583 27.2575C104.583 25.2051 103.643 23.9942 102.062 23.9942C100.481 23.9942 99.5416 25.2144 99.5416 27.2575C99.5416 29.3175 100.481 30.5192 102.062 30.5192C103.643 30.5192 104.583 29.3174 104.583 27.2575Z" fill="black"/>
<path d="M108.179 22.5026H110.04V24.1207H110.085C110.211 23.6153 110.507 23.1687 110.924 22.856C111.34 22.5432 111.851 22.3833 112.372 22.4032C112.597 22.4024 112.821 22.4268 113.04 22.476V24.3011C112.756 24.2144 112.46 24.1746 112.164 24.1832C111.88 24.1717 111.597 24.2218 111.335 24.3298C111.073 24.4379 110.837 24.6015 110.644 24.8093C110.451 25.0171 110.305 25.2643 110.216 25.5339C110.127 25.8034 110.098 26.089 110.13 26.3709V32.0095H108.179L108.179 22.5026Z" fill="black"/>
<path d="M122.036 29.218C121.774 30.9437 120.093 32.128 117.943 32.128C115.178 32.128 113.461 30.2752 113.461 27.3026C113.461 24.3202 115.187 22.3864 117.861 22.3864C120.491 22.3864 122.145 24.1931 122.145 27.076V27.7445H115.431V27.8624C115.4 28.2123 115.444 28.5647 115.559 28.8964C115.675 29.228 115.86 29.5312 116.102 29.7859C116.344 30.0406 116.637 30.2409 116.962 30.3735C117.287 30.5061 117.637 30.568 117.988 30.5551C118.449 30.5983 118.912 30.4915 119.308 30.2506C119.703 30.0097 120.01 29.6475 120.184 29.218L122.036 29.218ZM115.44 26.3807H120.193C120.21 26.0661 120.163 25.7513 120.053 25.4559C119.943 25.1606 119.773 24.8912 119.554 24.6646C119.335 24.438 119.072 24.2591 118.78 24.1391C118.489 24.0192 118.176 23.9607 117.861 23.9675C117.543 23.9656 117.228 24.0267 116.934 24.1472C116.64 24.2677 116.373 24.4453 116.148 24.6696C115.923 24.894 115.744 25.1607 115.623 25.4544C115.501 25.7481 115.439 26.0629 115.44 26.3807Z" fill="black"/>
</svg>
